<svg viewBox="0 0 660.46 1206.46" fill="none" xmlns="http://www.w3.org/2000/svg">
<g id="anterior-deltoid" class="bodymap text-mw-gray active:text-mw-red-700 lg:hover:text-mw-red-100"><path d="M277.59,217.03c-.09.04-.16.05-.25.09-.29.07-.55.16-.84.23-.05.02-.09.04-.11.09h-.02c-3.52,1.23-11.43,4.22-18.02,8.42-11.04,7-15.5,12.92-22.25,21.89-3.05,4.04-6.52,8.61-11.25,14.19l-.04.05c-5.02,5.88-15.43,18.12-28.74,27.14-2.54,1.72-6.09,3.32-10.59,4.77.77-21.76,8.81-61.27,53.23-83.73,18.52-.5,35.53,5.57,38.88,6.86Z" fill="currentColor"></path><path d="M491.03,293.92c-4.52-1.47-8.07-3.07-10.61-4.79-13.31-9.02-23.74-21.26-28.74-27.14l-.05-.05c-4.72-5.57-8.18-10.15-11.23-14.19-6.75-8.97-11.22-14.88-22.25-21.89-6.59-4.2-14.5-7.18-18.02-8.42h-.02c-.02-.05-.05-.07-.11-.09-.29-.07-.55-.16-.84-.23-.09-.04-.18-.05-.27-.09,3.32-1.27,20.34-7.36,38.9-6.86h.02c44.44,22.48,52.44,61.99,53.23,83.75Z" fill="currentColor"></path></g>
</svg>