<svg viewBox="0 0 660.46 1206.46" fill="none" xmlns="http://www.w3.org/2000/svg">
<g id="feet" class="bodymap text-mw-gray active:text-mw-red-700 lg:hover:text-mw-red-100"><path d="M521.75,1174.88c-.46,1.98-3.12,3.68-7.66,4.9-5.14.87-12.19,2.96-19.63,5.18-2.09.63-4.19,1.25-6.25,1.85-.4.11-.73.35-.96.67-.37.52-9.26,12.54-29.83,12.54-7.08,0-12.35-1.85-15.67-5.5-4.88-5.35-4.67-13.64-4.1-18.1,1.19-9.36,1.32-23.89-.7-33.53-.86-4.06-.59-5.96-.21-8.6.5-3.51,1.12-7.88-.25-18.63-.61-4.83-1.83-11.39-3.51-19.07,2.99,2.11,6.73,3.57,11.08,4.3,2.09.35,4.28.52,6.5.52,8.43,0,17.49-2.43,24.45-6.71-.49,7.13-.64,12.34-.34,15.48.89,9.49,2.13,15.76,3.44,22.39.36,1.78.71,3.6,1.07,5.52.05.25.16.5.31.72.44.59,10.87,14.42,20.51,20.27.32.2.73.29,1.12.26.14,0,3.55-.23,6.66,3.84.37.48,1,.73,1.6.69.22,0,5.31-.34,8.9,4.45.08.1.18.21.28.3,1.08.91,3.76,3.8,3.19,6.24Z" fill="currentColor"></path><path d="M239.43,1134.3c.38,2.64.65,4.55-.21,8.6-2.03,9.63-1.89,24.16-.7,33.53.56,4.46.78,12.75-4.1,18.1-3.32,3.65-8.59,5.5-15.67,5.5-20.57,0-29.46-12.02-29.83-12.53-.23-.33-.57-.57-.96-.68-2.06-.6-4.16-1.23-6.25-1.85-7.45-2.22-14.48-4.32-19.63-5.18-4.55-1.22-7.2-2.92-7.66-4.9-.57-2.44,2.12-5.33,3.19-6.24.11-.09.21-.19.29-.3,3.59-4.79,8.68-4.47,8.89-4.45.63.05,1.23-.2,1.61-.69,3.11-4.06,6.5-3.85,6.63-3.84.4.04.8-.05,1.14-.26,9.64-5.86,20.07-19.69,20.51-20.27.15-.22.26-.46.32-.72.36-1.91.71-3.72,1.07-5.51,1.31-6.64,2.55-12.9,3.44-22.4.3-3.14.14-8.35-.34-15.48,6.96,4.27,16.02,6.71,24.45,6.71,2.22,0,4.41-.17,6.5-.52,4.35-.73,8.08-2.18,11.07-4.28-1.68,7.67-2.9,14.23-3.51,19.06-1.37,10.75-.74,15.12-.24,18.63Z" fill="currentColor"></path></g>
</svg>