<svg viewBox="0 0 660.46 1206.46" fill="none" xmlns="http://www.w3.org/2000/svg">
<g id="gastrocnemius" class="bodymap text-mw-gray active:text-mw-red-700 lg:hover:text-mw-red-100"><path d="M437.08,993.71v.02c-.45,1.98-.7,4.48-.99,7.21-.97,9.23-2.18,20.73-11.43,22.6-3.54.72-14.3,2.9-24.06-21.92t-.02-.04c-3.14-9.9-3.45-23.56,1.23-66.8v-.02s.02-.04.02-.05c0-.12.02-.25.02-.35,0-.04,0-.07.02-.11.11-1.05.23-2.12.36-3.2,0-.04,0-.07.02-.11v-.09c1.23-6.98,4.84-12.24,10.25-14.73,5.85-2.69,13.07-1.75,18.88,2.43.49.35.97.63,1.46.84,8.07,6.96,7.11,46.03,4.24,74.3Z" fill="currentColor"></path><path d="M273.97,1001.58s-.02.02-.02.04c-9.77,24.82-20.53,22.65-24.06,21.92-9.26-1.87-10.45-13.36-11.43-22.6-.29-2.73-.54-5.23-.99-7.21v-.04c-2.87-28.25-3.83-67.27,4.21-74.26.51-.21,1.01-.51,1.5-.86,5.8-4.18,13.03-5.12,18.88-2.43,5.49,2.52,9.13,7.91,10.29,15.04v.02c.16.91.27,1.85.32,2.83,0,.05.02.09.02.14v.05c0,.05.02.12.02.18,0,.1.02.21.02.31,0,.05.02.12.04.17,4.66,43.17,4.35,56.81,1.21,66.69Z" fill="currentColor"></path></g>
</svg>