<svg viewBox="0 0 660.46 1206.46" fill="none" xmlns="http://www.w3.org/2000/svg">
<g id="gluteus-maximus" class="bodymap text-mw-gray active:text-mw-red-700 lg:hover:text-mw-red-100"><path d="M438.24,593.8v.02c0,11.05-2.71,20.41-8.09,28.05-11.86,16.77-33.27,19.78-41.94,20.29-1.03.07-2.04.12-3.05.19h-.04c-.67.04-1.32.09-1.97.12-.38.02-.76.05-1.14.07-.31.02-.63.04-.96.05-1.32.05-2.69.12-4.06.24-.16.02-.32.04-.49.04-12.42.68-23.7.38-30.82-6.05-5.36-4.86-7.98-12.86-7.98-24.47v-60.53c0-18.38,5.43-31.6,16.12-39.32,8.95-6.45,20.35-8.06,30.55-7.19-11.59,26.13,1.25,34.26,17.48,44.55,14.23,9.01,30.31,19.2,36.38,43.94Z" fill="currentColor"></path><path d="M336.81,551.82v60.53c0,11.61-2.6,19.61-7.96,24.47-7,6.35-18.07,6.7-30.29,6.1-.18-.02-.34-.04-.51-.04-1.53-.16-3.09-.23-4.59-.3-1.43-.07-2.78-.12-4.04-.25h-.04c-1.01-.07-2.04-.12-3.05-.19-8.67-.51-30.08-3.52-41.94-20.29-5.4-7.63-8.09-17.02-8.09-28.05,6.07-24.77,22.15-34.95,36.36-43.95,16.25-10.28,29.08-18.42,17.48-44.55,10.2-.87,21.61.73,30.56,7.19,10.69,7.71,16.1,20.94,16.1,39.32Z" fill="currentColor"></path></g>
</svg>