<svg viewBox="0 0 660.46 1206.46" fill="none" xmlns="http://www.w3.org/2000/svg">
<g id="gluteus-medius" class="bodymap text-mw-gray active:text-mw-red-700 lg:hover:text-mw-red-100"><path d="M438.13,590c-6.84-22.55-22.8-32.65-35.76-40.87-15.94-10.07-28.52-18.07-17.04-43.73,3.85.39,7.51,1.12,10.78,2.06,1.97.58,3.79,1.19,5.47,1.89.02,0,.04.02.04.02.45.18.9.37,1.34.56.11.04.22.09.31.12,16.32,7.33,20,20.43,24.9,37.8,1.3,4.6,2.64,9.36,4.31,14.46,3.34,10.09,5.24,19.31,5.67,27.69Z" fill="currentColor"></path><path d="M272.18,549.13c-12.96,8.22-28.92,18.33-35.76,40.87.45-8.36,2.35-17.6,5.67-27.69,1.68-5.11,3.01-9.86,4.31-14.46,4.89-17.37,8.58-30.47,24.9-37.8.54-.25,1.12-.49,1.72-.72,1.68-.68,3.48-1.31,5.43-1.87,3.27-.94,6.93-1.68,10.78-2.06,11.48,25.66-1.1,33.65-17.04,43.73Z" fill="currentColor"></path></g>
</svg>