<svg viewBox="0 0 660.46 1206.46" fill="none" xmlns="http://www.w3.org/2000/svg">
<g id="hands" class="bodymap text-mw-gray active:text-mw-red-700 lg:hover:text-mw-red-100"><path d="M51.56,589.95c-.52-3.13-.05-5.89.45-8.83,1.07-6.19,2.15-12.61-6.43-22.95-.16-.23-1.95-2.96,1.48-10.95-4.51,2.52-9.12,3.83-13.16,3.83-1.93,0-3.72-.3-5.33-.89-.97-.37-1.91-.86-2.82-1.47-.05,0-.11-.02-.16-.04-.13-.05-.22-.14-.27-.26v-.02c-3.85-2.73-6.97-7.52-8.72-13.54-1.95,2.73-3.95,6.65-3.5,23.02-.04,5.04-3.07,14.55-6.01,23.75-2.55,7.98-5.18,16.23-5.69,21.15,0,4.84,1.66,11.16,3.29,17.26,1.05,3.97,2.13,8.06,2.76,11.79.92,5.49,4.6,8.12,9.28,11.42,3.01,2.13,6.43,4.55,9.71,8.19.79-.77,2.76-2.99,2.85-6.1.02-.54-.04-1.08-.13-1.63-.02-.04-.02-.09-.02-.12-.02-.12-.08-.23-.11-.35l.85-.4c1.05-.77,3.32-2.75,3.94-5.56.45-2.12-.11-4.3-1.66-6.52-.49-.7-.94-1.31-1.34-1.87-3.48-4.79-3.94-5.42-1.66-13.82.79-3.01,1.05-5.65,1.28-8.19.25-2.83.51-5.51,1.57-8.12l.59-1.41c.07-.04.12-.07.19-.11,1.71-1.07,3.75-2.48,6.19-4.41.14-.11.34-.12.49-.05.16.09.25.24.25.42s-.42,18.12,6.44,21.72c2.27,1.19,5.2.65,8.67-1.64.09-.96.36-6.44-3.29-23.3Z" fill="currentColor"></path><path d="M667.44,581.61c-2.92-9.2-5.96-18.71-5.99-23.73.45-16.35-1.55-20.29-3.5-23.02-1.77,6.03-4.91,10.84-8.76,13.57-.05.11-.14.19-.23.23-.04.02-.09.02-.13.02-.92.61-1.86,1.12-2.85,1.49-1.61.59-3.41.89-5.33.89-4.04,0-8.63-1.31-13.16-3.81,3.43,7.96,1.64,10.7,1.48,10.91-8.59,10.35-7.49,16.77-6.43,22.96.51,2.94.97,5.7.45,8.82-3.65,16.86-3.38,22.33-3.29,23.31,3.47,2.29,6.37,2.83,8.67,1.64,6.86-3.6,6.44-21.55,6.44-21.72-.02-.18.09-.33.23-.42.16-.07.36-.05.49.05,2.46,1.92,4.5,3.34,6.19,4.41.02.02.04.03.07.04l.73,1.48c1.07,2.61,1.32,5.28,1.57,8.12.23,2.54.47,5.18,1.28,8.19,2.27,8.39,1.82,9.02-1.66,13.82-.4.56-.85,1.17-1.34,1.87-1.55,2.22-2.11,4.41-1.66,6.52.61,2.82,2.87,4.79,3.92,5.58l.84.48c-.02.09-.07.18-.08.27,0,.04,0,.07-.02.12-.11.54-.14,1.08-.13,1.63.09,3.11,2.06,5.32,2.83,6.09,3.3-3.64,6.72-6.05,9.73-8.19,4.66-3.31,8.36-5.93,9.28-11.42.63-3.71,1.72-7.82,2.76-11.79,1.61-6.1,3.29-12.42,3.29-17.32-.52-4.86-3.14-13.1-5.7-21.09Z" fill="currentColor"></path></g>
</svg>