<svg viewBox="0 0 660.46 1206.46" fill="none" xmlns="http://www.w3.org/2000/svg">
<g id="inner-thigh" class="bodymap active:text-mw-red-700 text-mw-gray lg:hover:text-mw-red-100"><path d="M366.62,646.55c-1.66,1.82-2.33,4.29-2.08,7.54,1.28,16.39-2.46,23.3-6.08,30-4.15,7.68-8.14,15.01-5.02,35.1-.78-2.99-1.55-6.05-2.31-9.2-7.17-29.61-8.41-43.95-9.87-60.55-.56-6.54-1.16-13.22-2.13-21.25,1.35,3.83,3.34,6.91,5.96,9.27,5.78,5.23,14.08,6.56,23.49,6.56.76,0,1.52,0,2.27-.04-1.66.56-3.12,1.38-4.22,2.57Z" fill="currentColor"></path><path d="M335.39,628.29c-.96,7.99-1.53,14.64-2.11,21.15-1.44,16.6-2.71,30.94-9.88,60.55-.76,3.15-1.53,6.21-2.29,9.2,3.12-20.1-.87-27.42-5.02-35.1-3.63-6.7-7.38-13.61-6.08-30,.25-3.25-.43-5.72-2.08-7.54-1.1-1.19-2.55-2.01-4.22-2.57.76.04,1.52.04,2.27.04,9.39,0,17.71-1.33,23.49-6.56,2.6-2.33,4.57-5.39,5.92-9.16Z" fill="currentColor"></path></g>
</svg>