<svg viewBox="0 0 660.46 1206.46" fill="none" xmlns="http://www.w3.org/2000/svg">
<g id="inner-quadricep" class="bodymap text-mw-gray active:text-mw-red-700 lg:hover:text-mw-red-100"><path d="M304.22,784.73v.02l-.05.3c-.02.07-.04.12-.04.2-.5,2.32-.98,4.84-1.46,7.49,0,.04-.02.09-.02.13-.05.27-.11.55-.16.82v.02c-.93,5.09-1.68,9.9-2.32,14.62v.02l-.02.02s-.02.11-.04.29c0,.04-.02.07-.02.11-.41,2.63-2.88,17.44-8.57,30.61-7.89-7.34-7.52-21.5-6.89-44.85.63-23.57,1.52-58.13-6.09-105.14,7.72,34.61,16.09,44.78,21.84,51.75,6.55,7.97,9.56,11.6,3.84,43.62Z" fill="currentColor"></path><path d="M391.86,794.51c.63,23.35,1,37.51-6.89,44.85-6.23-14.37-8.59-30.72-8.63-31,0-.02-.02-.04-.04-.05v-.02c-.66-4.86-1.43-9.72-2.32-14.58.02-.02.02-.05.02-.07-.09-.41-.16-.82-.25-1.21l-.05-.32c-.41-2.27-.86-4.54-1.32-6.81-.02-.05-.02-.13-.04-.18-.02-.12-.05-.25-.07-.38-5.72-32.02-2.71-35.65,3.84-43.62,5.75-6.97,14.13-17.14,21.84-51.75-7.61,47.01-6.72,81.57-6.09,105.14Z" fill="currentColor"></path></g>
</svg>