<svg viewBox="0 0 660.46 1206.46" fill="none" xmlns="http://www.w3.org/2000/svg">
<g id="lateral-hamstrings" class="bodymap text-mw-gray active:text-mw-red-700 lg:hover:text-mw-red-100"><path d="M462.79,809.31c-.49,2.13-.7,4.35-.74,6.73v.02c-3.72,15.06-9.39,31.33-16.59,32.16-.49.05-.97.04-1.46-.05-17.58-11.07-34.3-118.65-38.34-208.34,8.81-2.8,18.52-7.96,25.24-17.47,5.36-7.61,8.12-16.91,8.23-27.83.07-.07.13-.19.13-.3v-.12c-.04-.14-.07-.28-.11-.42v-.02c-.02-9.37-1.97-19.96-5.81-31.64-1.68-5.07-3.01-9.83-4.31-14.41-4.15-14.76-7.47-26.5-18.25-34.28,16.88,8.13,36.59,22.95,38.13,37.32v.04c.04,1.5-.05,2.73-.13,3.88-.29,4.13-.52,7.71,4.01,20.48,9.17,25.92,34.05,145.48,10.02,234.25Z" fill="currentColor"></path><path d="M268.88,639.82c-.9,20.22-2.46,41.35-4.51,62.07-7.09,71.22-20.2,137.7-33.81,146.29-.49.11-.97.11-1.46.05-7.2-.84-12.85-17.05-16.59-32.09v-.02c-.04-2.41-.25-4.67-.74-6.82-24.03-88.74.85-208.31,10.02-234.23,4.53-12.77,4.28-16.35,4.01-20.48-.09-1.17-.16-2.41-.13-3.95t0-.04c1.59-14.36,21.28-29.12,38.13-37.27-10.8,7.8-14.1,19.54-18.25,34.3-1.3,4.58-2.64,9.34-4.31,14.41-3.86,11.68-5.79,22.25-5.81,31.64v.02c-.04.14-.07.28-.11.42,0,.04-.02.09-.02.12,0,.12.05.25.14.33.11,10.9,2.85,20.18,8.23,27.79,6.72,9.5,16.41,14.67,25.22,17.46Z" fill="currentColor"></path></g>
</svg>