<svg viewBox="0 0 660.46 1206.46" fill="none" xmlns="http://www.w3.org/2000/svg">
<g id="lateral-deltoid" class="bodymap text-mw-gray active:text-mw-red-700 lg:hover:text-mw-red-100"><path d="M524.84,289.03c-2.4-1.78-8.95-6.16-15.74-6.51-.58-.02-1.23-.05-1.95-.09-2.33-.09-5.42-.23-9.01-.56l-1.75-2.73c-13.61-21.25-30.51-47.64-67.19-67.56,4.84-1.5,10.47-2.4,16.97-2.17h.11c1.52.16,17.53,1.87,34.72,12.02,16.41,9.71,37.28,29.28,43.85,67.6Z" fill="currentColor"></path><path d="M245.32,211.59c-36.67,19.92-53.56,46.31-67.16,67.56l-1.75,2.73c-3.59.33-6.68.47-9.01.56-.74.04-1.39.07-1.95.09-6.81.35-13.38,4.76-15.74,6.52,6.57-38.32,27.42-57.91,43.83-67.62,17.66-10.41,34.05-11.95,34.81-12.02h.02c6.48-.21,12.11.66,16.95,2.17Z" fill="currentColor"></path></g>
</svg>