<svg viewBox="0 0 660.46 1206.46" fill="none" xmlns="http://www.w3.org/2000/svg">
<g id="lateral-head-triceps" class="bodymap text-mw-gray active:text-mw-red-700 lg:hover:text-mw-red-100"><path d="M572.19,373.95c-5.49-6.66-8.48-11.16-12.84-17.77-2.15-3.24-4.57-6.89-7.76-11.56-10.92-15.88-19.17-18.91-27.91-22.11-11.19-4.09-23.85-8.73-44.74-43.46,6.84,2.12,13.43,3.13,18.9,3.66,3.7.37,6.88.51,9.26.61.72.04,1.37.07,1.95.09,8.03.42,16.05,6.96,16.12,7.01.23.19,22.78,19.38,30.73,46.28.05.14,6.54,13.92,10.92,21.36,1.61,2.71,2.35,5.63,3.12,8.71.6,2.36,1.21,4.76,2.22,7.15t.02.04Z" fill="currentColor"></path><path d="M195.58,279.06c-20.87,34.72-33.54,39.35-44.72,43.45-8.74,3.2-17.01,6.23-27.91,22.11-3.25,4.72-5.69,8.43-7.85,11.68-4.33,6.56-7.29,11.05-12.75,17.67,0-.05.02-.11.04-.16l.02-.02c.97-2.36,1.57-4.72,2.17-7.03.02-.07.04-.12.05-.19s.04-.16.05-.23c.76-2.92,1.5-5.7,3.03-8.29,4.39-7.43,10.87-21.22,10.94-21.41,7.82-26.48,29.9-45.53,30.69-46.23h.02l.02-.02c.56-.44,8.32-6.59,16.1-7,.58-.02,1.23-.05,1.95-.09,5.92-.26,16.68-.72,28.14-4.25Z" fill="currentColor"></path></g>
</svg>