<svg viewBox="0 0 660.46 1206.46" fill="none" xmlns="http://www.w3.org/2000/svg">
<g id="lats" class="bodymap text-mw-gray active:text-mw-red-700 lg:hover:text-mw-red-100"><path d="M472,307.83c-2.55,11.75-4.93,22.91-1.37,28.75v.02c-.61,2.69-8.86,38.64-21.28,57.75-11.81,18.21-11.93,44.95-11.99,59.33-.02,1.61-.02,3.1-.04,4.43-.22,13.07,3.72,56.44,9.41,79.14.76,3.04,1.28,5.51,1.61,7.59-6.25-15.71-29.7-29.82-44.74-35.59-.14-.05-.27-.11-.42-.18-.04-.04-.09-.05-.14-.05-.34-.17-.7-.31-1.07-.45-.04-.04-.07-.05-.13-.05-13.59-6.21-13.07-18.33-12.42-33.6.54-12.26,1.14-26.15-6.03-39.39-27.87-51.56-35.71-74.65-24.64-107.7.02-.05.04-.09.05-.14,1.14-3.06,2.36-6.31,3.7-9.76v-.02c8.47-21.83,21.23-51.61,42.26-89.41l.02-.02.56-.63c.23-.24.47-.51.72-.77,9.82,9.15,19.93,16.72,30.62,24.77,6.68,5,13.59,10.2,20.69,15.97,4.26,3.46,8.85,6.12,13.47,8.19l.02.02c7.06,4.29,4.04,18.28,1.14,31.81Z" fill="currentColor"></path><path d="M291.16,435.53c-7.17,13.24-6.57,27.13-6.05,39.39.67,15.27,1.19,27.44-12.46,33.62t-.04.02c-.51.19-.99.4-1.48.63-.07.02-.13.04-.18.07-15.04,5.77-38.49,19.89-44.74,35.59.33-2.08.85-4.55,1.61-7.59,5.69-22.7,9.6-66.08,9.41-79.14-.02-1.33-.04-2.82-.04-4.43-.07-14.38-.18-41.12-11.99-59.33-12.4-19.08-20.65-54.94-21.28-57.74v-.02c3.56-5.84,1.17-17-1.37-28.77-2.91-13.54-5.92-27.53,1.14-31.81l.02-.02c4.62-2.06,9.21-4.72,13.47-8.19,7.09-5.77,14.01-10.97,20.67-15.99,10.71-8.03,20.83-15.62,30.64-24.77.23.28.49.54.72.79l.56.63.02.02c16.27,29.26,27.6,53.73,35.82,73.42-.02.05-.02.11-.02.16.02.14.09.26.22.32,2.33,5.54,4.39,10.72,6.25,15.51,1.35,3.52,2.6,6.82,3.76,9.92,0,.04.02.09.04.12,11.01,33,3.18,56.09-24.68,107.58Z" fill="currentColor"></path></g>
</svg>