<svg viewBox="0 0 660.46 1206.46" fill="none" xmlns="http://www.w3.org/2000/svg">
<g id="long-head-bicep" class="bodymap text-mw-gray active:text-mw-red-700 lg:hover:text-mw-red-100"><path d="M549.38,414.73c-1.61.8-3.43,1.38-5.43,1.68,2.79-1,4.63-2.64,5.48-4.91,2.11-5.63-2.5-13.31-4.16-15.8-.3-.46-.52-.73-.55-.8l-.02-.02c-6.18-9.99-12.9-19.57-19.4-28.8-9.18-13.04-17.77-25.23-23.25-36.51.02-.02,0-.02,0-.04-.04-.05-.05-.11-.09-.16-5.84-12.08-8.09-23.1-3.72-33.02,2.71.32,6.2.93,10.13,2.05.04.04.11.05.16.05h.04c2.68.8,5.57,1.82,8.57,3.16,3.47,1.57,6.82,3.41,9.91,5.52l.02.02h.02c.46.55,1,1.13,1.61,1.77,2.93,3.09,7.93,8.33,16.66,24.8,0,.02,0,.04.02.05v.04c26.63,58.98,13.93,76.01,4,80.91Z" fill="currentColor"></path><path d="M174.53,329.37c-.04.05-.05.11-.09.16,0,.02-.02.02,0,.04-5.48,11.28-14.07,23.46-23.25,36.51-6.5,9.26-13.23,18.83-19.41,28.82-.04.05-.2.29-.46.64-.04.04-.05.09-.09.14v.04s-.02,0-.02.02c-1.68,2.52-6.25,10.15-4.14,15.76.86,2.27,2.7,3.91,5.48,4.91-2-.3-3.82-.89-5.43-1.68-9.93-4.9-22.63-21.92,4-80.91,0-.02,0-.04.02-.05v-.02c8.68-16.44,13.68-21.71,16.68-24.85.63-.64,1.16-1.22,1.64-1.77,3.09-2.09,6.43-3.93,9.89-5.5,3.02-1.34,5.91-2.38,8.61-3.16.05,0,.13-.02.16-.05,3.93-1.13,7.41-1.73,10.13-2.05,4.38,9.92,2.13,20.94-3.72,33.02Z" fill="currentColor"></path></g>
</svg>