<svg viewBox="0 0 660.46 1206.46" fill="none" xmlns="http://www.w3.org/2000/svg">
<g id="long-head-triceps" class="bodymap text-mw-gray active:text-mw-red-700 lg:hover:text-mw-red-100"><path d="M511.21,391.63c-.51-.51-1.03-1.03-1.57-1.57-8.38-8.31-29.64-40.75-37.66-52.98l-.49-.77c-3.52-5.49-1.03-17.09,1.39-28.3,2.65-12.35,5.4-25.06.54-30.92,1.41.58,2.83,1.08,4.22,1.56h.02c4.04,6.79,7.8,12.45,11.28,17.21v.02c.02.05.05.09.07.12,2.22,3.13,4.33,6.05,6.34,8.82,22.21,30.7,29.75,41.14,15.85,86.82Z" fill="currentColor"></path><path d="M203.06,336.31l-.51.77c-8,12.23-29.28,44.67-37.64,52.98-.54.54-1.07,1.07-1.57,1.57-13.9-45.68-6.35-56.13,15.85-86.82,1.99-2.76,4.12-5.68,6.34-8.82.04-.05.07-.1.07-.17,0,0,.02,0,.02-.02,3.47-4.76,7.2-10.39,11.25-17.16,1.41-.45,2.83-.98,4.26-1.56-4.86,5.86-2.11,18.57.54,30.92,2.42,11.21,4.91,22.81,1.39,28.3Z" fill="currentColor"></path></g>
</svg>