<svg viewBox="0 0 660.46 1206.46" fill="none" xmlns="http://www.w3.org/2000/svg">
<g id="lowerback" class="bodymap text-mw-gray active:text-mw-red-700 lg:hover:text-mw-red-100"><path d="M397.22,506.89c-.29-.09-.58-.18-.87-.26-3.41-1-7.22-1.73-11.23-2.1-.04-.02-.05-.02-.09-.02-10.54-1-22.42.58-31.74,7.29-9.15,6.59-14.53,17.11-16.03,31.31-1.5-14.2-6.88-24.71-16.01-31.31-9.32-6.72-21.19-8.29-31.74-7.29-.04,0-.07,0-.11.02-4.01.37-7.82,1.12-11.21,2.1-.29.09-.58.17-.87.26,9.77-6.98,9.26-18.71,8.68-32.01-.52-12.16-1.12-25.92,5.94-38.95,24.68-45.6,33.78-69.73,27.51-98.14.09.24.18.51.27.75,7.29,20.01,10.62,29.14,17.53,29.14s10.25-9.13,17.53-29.14c.11-.28.2-.54.31-.82-6.3,28.44,2.8,52.56,27.49,98.21,7.04,13.03,6.44,26.79,5.92,38.95-.58,13.29-1.08,25.03,8.7,32.01Z" fill="currentColor"></path></g>
</svg>