<svg viewBox="0 0 660.46 1206.46" fill="none" xmlns="http://www.w3.org/2000/svg">
<g id="lower-trapezius" class="bodymap text-mw-gray active:text-mw-red-700 lg:hover:text-mw-red-100"><path d="M367.7,302.55c-2.35,5.65-4.44,10.91-6.34,15.76-.04.09-.05.16-.09.23-1.01,2.45-1.91,4.83-2.71,7.15-.04.05-.05.12-.07.18-1.7,4.55-3.2,8.68-4.55,12.38-7.13,19.62-10.4,28.56-16.68,28.56s-9.53-8.94-16.68-28.56c-1.28-3.5-2.69-7.38-4.28-11.65-.02-.07-.05-.16-.09-.23-.96-2.85-2.08-5.79-3.34-8.8v-.02c-1.82-4.69-3.85-9.74-6.1-15.16,9.08-.96,19.35-1.47,29.7-1.47,11.01,0,21.81.56,31.23,1.63Z" fill="currentColor"></path></g>
</svg>