<svg viewBox="0 0 660.46 1206.46" fill="none" xmlns="http://www.w3.org/2000/svg">
<g id="lower-abdominals" class="bodymap active:text-mw-red-700 text-mw-red"><path d="M380.34,422.27l-1.48.02c-3.55.07-7.06.12-10.45.12-11.18,0-21.04-.63-26.84-3.93-1.98-1.13-2.91-3.06-3.32-5.57-.41,2.52-1.34,4.45-3.32,5.57-5.8,3.31-15.66,3.93-26.84,3.93-3.39,0-6.89-.05-10.45-.12l-1.48-.02c-.05,0-5.22-.13-10.93-.59.86,20.28,2.27,48.08,3.61,69.13,1.98,31.06,13.79,55.12,20.67,66.7,9.86,16.64,21.34,27.8,28.58,27.8.07,0,.14.04.18.11.04-.07.11-.11.18-.11,7.23,0,18.72-11.17,28.58-27.8,6.86-11.58,18.68-35.65,20.67-66.7,1.34-21.05,2.75-48.87,3.61-69.13-5.72.46-10.88.59-10.93.59ZM305.76,426.97c5.64-.64,15.09-1.73,23.47-1.63,7.36.09,8.77,4.56,9.02,11.19.25-6.63,1.66-11.1,9.02-11.19,8.38-.11,17.83.98,23.47,1.63.13.02.21.13.2.25-.02.13-.13.21-.25.2-5.63-.64-15.06-1.75-23.42-1.63-8.02.11-8.61,5.5-8.61,13.7,0,.13-.11.21-.23.21-.09,0-.14-.04-.18-.11-.04.07-.09.11-.18.11-.13,0-.23-.09-.23-.21,0-8.2-.59-13.6-8.63-13.7-8.36-.11-17.77.98-23.42,1.63-.11.02-.23-.07-.23-.2-.02-.12.07-.23.2-.25ZM338.66,571.15c0,.12-.11.21-.23.21-.02,0-.04-.02-.04-.02-.02.02-.02,0-.02,0-.02.02-.05.02-.07.02s-.04,0-.05-.02c-.02.02-.04.02-.05.02s-.05,0-.07-.02h-.02s-.02.02-.04.02c-.13,0-.23-.09-.23-.21v-67.56c0-.13.11-.21.23-.21.02,0,.04.02.04.02h.02s.05-.02.07-.02.04,0,.05.02c.02-.02.04-.02.05-.02s.05,0,.07.02c0,0,0-.02.02,0,0,0,.02-.02.04-.02.13,0,.23.09.23.21v67.56ZM370.72,476.5h-.64c-6.41,0-21.29,1.45-26.54,2.66-4,.91-4.88,4.74-5.07,9.13.07,1.29.07,2.61.07,3.88v.79c0,.13-.11.21-.23.21-.02,0-.04,0-.05-.02-.02.02-.04.02-.05.02-.13,0-.23-.09-.23-.21v-.79c0-1.27,0-2.59.07-3.88-.2-4.4-1.07-8.22-5.07-9.13-5.43-1.25-21.2-2.79-27.18-2.66-.13,0-.21-.09-.21-.21-.02-.13.09-.21.21-.23,6.13-.12,21.7,1.39,27.29,2.66,3.41.79,4.7,3.57,5.18,6.95.48-3.38,1.77-6.16,5.18-6.95,5.59-1.27,21.13-2.81,27.29-2.66.13.02.23.11.21.23,0,.13-.09.21-.21.21ZM378.83,470.23c-5.64.2-9.57.48-13.06.71-4.27.3-7.86.55-13.09.55-1.7,0-3.55-.02-5.68-.07-6.79-.52-8.48-2.97-8.75-15.4-.27,12.44-1.96,14.88-8.75,15.4-2.11.05-3.98.07-5.68.07-5.23,0-8.82-.25-13.11-.55-3.47-.23-7.39-.52-13.04-.71-.13-.02-.21-.11-.21-.23.02-.13.11-.21.23-.21,2.82.11,5.22.21,7.34.34,2.13.12,3.98.27,5.72.38,5.66.41,10.13.71,18.74.48,7.11-.54,8.36-3.4,8.36-19.14,0-.13.11-.23.23-.23.07,0,.14.04.18.11.04-.07.11-.11.18-.11.13,0,.23.11.23.23,0,15.74,1.25,18.6,8.38,19.14,8.59.23,13.06-.07,18.72-.48,3.47-.23,7.41-.52,13.06-.71.13,0,.21.09.23.21,0,.13-.11.21-.21.23Z" fill="currentColor"></path></g>
</svg>