<svg viewBox="0 0 660.46 1206.46" fill="none" xmlns="http://www.w3.org/2000/svg">
<g id="medial-hamstrings" class="bodymap text-mw-gray active:text-mw-red-700 lg:hover:text-mw-red-100"><path d="M411.28,859.44l-.02.02c-2.17,2.29-4.96,3.69-8.56,3.69-13.18,0-21.34-19.76-29.05-70.52-.04-.23-.27-.4-.52-.37-.02,0-.04,0-.05.02-3.59-16.76-7.71-30.99-11.97-45.68-1.39-4.77-2.8-9.58-4.19-14.59,0-.02-.02-.05-.02-.09-7.13-29.93-2.53-38.43,2.35-47.43,3.68-6.8,7.49-13.83,6.19-30.47-.23-3.01.36-5.26,1.84-6.89,2.11-2.31,5.83-3.06,9.71-3.39.05-.02.13-.02.2-.02,1.3-.07,2.6-.16,3.92-.24.34-.02.69-.04,1.01-.05.38-.02.74-.04,1.1-.07.65-.04,1.32-.09,1.99-.12,1.01-.07,2.04-.12,3.05-.19,3.74-.23,9.8-.89,16.48-2.92.92,20.13,2.47,41.14,4.53,61.78v.05c1.28,20.29,2.64,38.46,3.83,54.5,4.24,57.28,6.61,89.15-1.82,103Z" fill="currentColor"></path><path d="M317.7,731.69s-.02.09-.04.12c0,.04-.02.07-.02.11-.02.04-.02.07-.02.1-1.41,4.98-2.82,9.81-4.19,14.57-4.26,14.71-8.38,28.93-11.95,45.7-.02-.02-.05-.04-.09-.04-.23-.04-.47.14-.51.37-7.73,50.76-15.87,70.52-29.05,70.52-3.61,0-6.39-1.38-8.56-3.69-8.45-13.83-6.08-45.72-1.84-103.02,1.19-16.04,2.55-34.21,3.83-54.5,0-.04,0-.07-.02-.11,2.06-20.62,3.61-41.63,4.53-61.74,6.68,2.03,12.76,2.71,16.5,2.94,1.01.07,2.04.12,3.05.19.67.04,1.32.09,1.99.12.36.04.74.05,1.12.07.07.02.14.02.22.02,1.59.1,3.14.19,4.69.28.07,0,.14,0,.22.02,3.86.33,7.58,1.08,9.68,3.39,1.5,1.63,2.09,3.88,1.86,6.89-1.32,16.63,2.49,23.66,6.17,30.47,4.86,8.99,9.48,17.46,2.42,47.21Z" fill="currentColor"></path></g>
</svg>