<svg viewBox="0 0 660.46 1206.46" fill="none" xmlns="http://www.w3.org/2000/svg">
<g id="medial-head-triceps" class="bodymap text-mw-gray active:text-mw-red-700 lg:hover:text-mw-red-100"><path d="M572.15,385.23c-1.79,1.82-5.7.7-9.84-.49-4.4-1.26-8.97-2.57-12.04-.72-2.89,1.75-3.21,7.01-3.54,12.58-.36,6.19-.74,12.59-4.64,14.15-4.53,1.8-13.36-3.13-27.01-15.04-.02-.02-.04-.05-.07-.07-.97-1.1-2-2.15-3.09-3.29,13.85-45.26,7.02-56.41-14.08-85.61,10.33,11.04,18.23,13.94,25.51,16.6,8.59,3.15,16.72,6.12,27.48,21.78,3.21,4.65,5.61,8.31,7.76,11.54,4.68,7.08,7.78,11.77,14.06,19.27,1.03,4.86.87,7.92-.51,9.3Z" fill="currentColor"></path><path d="M162.62,392.35c-1.1,1.14-2.11,2.19-3.09,3.29-.04.02-.05.05-.07.07-13.65,11.91-22.48,16.84-27.03,15.04-3.88-1.56-4.26-7.96-4.62-14.15-.33-5.56-.65-10.83-3.54-12.58-3.09-1.85-7.64-.54-12.04.72-4.13,1.19-8.05,2.31-9.86.49-1.37-1.38-1.53-4.46-.49-9.3,6.23-7.45,9.32-12.12,13.99-19.15,2.15-3.25,4.59-6.94,7.84-11.67,10.74-15.65,18.87-18.63,27.48-21.78,7.29-2.68,15.2-5.58,25.55-16.65-21.14,29.26-27.98,40.38-14.12,85.67Z" fill="currentColor"></path></g>
</svg>