<svg viewBox="0 0 660.46 1206.46" fill="none" xmlns="http://www.w3.org/2000/svg">
<g id="mid-lower-pectoralis" class="bodymap active:text-mw-red-700 text-mw-gray lg:hover:text-mw-red-100"><path d="M337.83,236.19v49.92c0,10.31-3.55,20.17-10.02,27.77-7.02,8.24-15.52,14.62-25.29,18.92-.05.02-.11.04-.16.05l-.02.02c-1.61.59-3.27,1.23-4.93,1.93-.07.02-.14.05-.2.07-25.11,8.58-53.56,1.55-72.55-17.87-.09-.07-.16-.16-.25-.25-.2-.21-.39-.45-.59-.66-.02-.02-.04-.04-.07-.04,0,0,0-.02-.02-.02-1.07-1.14-2.13-2.32-3.14-3.56-7.09-8.61-15.31-17.03-30.56-17.03-.04,0-.05,0-.09.02h-.02c-.75-.02-1.55-.02-2.34-.02,44.94-9.27,68.23-28.38,90.75-46.85,13.99-11.47,27.18-22.3,45.1-30.79,5.64,2.45,8.97,5.7,10.93,8.51,3.43,4.93,3.47,9.61,3.47,9.86Z" fill="currentColor"></path><path d="M488.9,295.46c-.79,0-1.59,0-2.34.02h-.02s-.05-.02-.09-.02c-15.25,0-23.47,8.42-30.56,17.03-1.02,1.23-2.07,2.41-3.14,3.56-.02,0-.02.02-.02.02-.04,0-.05.02-.07.04-.2.21-.39.45-.59.66-.09.09-.16.18-.25.25-18.99,19.42-47.44,26.45-72.55,17.87-.05-.02-.13-.05-.2-.07-1.66-.7-3.32-1.34-4.93-1.93l-.02-.02c-.05-.02-.11-.04-.16-.05-9.77-4.31-18.27-10.69-25.29-18.92-6.47-7.59-10.02-17.46-10.02-27.77v-49.94s-.04-4.81,3.47-9.85c1.95-2.81,5.29-6.06,10.93-8.51,17.91,8.49,31.11,19.32,45.1,30.79,22.52,18.48,45.81,37.58,90.75,46.85Z" fill="currentColor"></path></g>
</svg>