<svg viewBox="0 0 660.46 1206.46" fill="none" xmlns="http://www.w3.org/2000/svg">
<g id="neck" class="bodymap text-mw-gray active:text-mw-red-700 lg:hover:text-mw-red-100"><path d="M389.18,184.89c-16.91-2.74-33.23-1.94-42.79-1.49-1.21.06-2.31.11-3.29.16-3.31.13-6.66.13-9.97,0-.97-.04-2.07-.1-3.29-.16-9.57-.45-25.88-1.25-42.78,1.48,4.67-3.55,9.37-8.03,9.65-8.29.31-.29.5-.67.53-1.08.73-7.59,1.03-12.93,1.03-12.98,0-.04,0-.08,0-.11l-.36-26.59c0-.26-.06-.52-.19-.75-1.19-2.33-1.98-5.41-2.49-8.16,1.05,1.69,2.03,3.31,2.95,4.87,3.11,5.2,5.35,8.96,8.17,10.55.73.41,1.49.59,2.29.59,2.3,0,4.95-1.49,8.1-3.24,5-2.8,11.83-6.62,20.57-6.62s15.55,3.82,20.54,6.61c3.15,1.77,5.81,3.25,8.12,3.25.8,0,1.56-.18,2.28-.59,2.82-1.6,5.06-5.35,8.16-10.55.93-1.56,1.9-3.2,2.96-4.89-.51,2.76-1.31,5.85-2.5,8.16-.14.27-.21.57-.19.87l1.29,26.6c0,.05.31,5.39,1.03,12.98.04.41.23.8.53,1.08.28.26,4.99,4.74,9.66,8.3Z" fill="currentColor"></path></g>
</svg>