<svg viewBox="0 0 660.46 1206.46" fill="none" xmlns="http://www.w3.org/2000/svg">
<g id="obliques" class="bodymap text-mw-gray active:text-mw-red-700 lg:hover:text-mw-red-100"><path d="M280.91,405.06c-2.79,15.51-5.95,33.09-3.55,49.32,5.04,34.38-6.98,50.16-12.4,55.36-6.95,6.65-18.88,9.72-29.24,7.52-.14-.04-.29-.05-.41-.09,1.46-11.63,2.55-21.55,3.18-28.71.43-5.06,1.11-10.1,1.82-15.44,2.61-19.32,5.3-39.27-4.34-58.43-20.42-39.36-25.34-63.49-26.15-68.1,1.21-3.5,2.11-7.11,2.71-10.76,1.18-7.29,4.3-26.64-6.66-35.58-.57-.46-1.2-.91-1.82-1.3,6.84,3.18,11.73,8.51,16.2,13.92,1.21,1.48,2.5,2.91,3.8,4.27.09.11.18.2.29.29,10.27,11.38,22.27,21.73,32.92,30.89,14.31,12.33,25.59,22.05,26.52,28.82,0,.04.02.09.02.13.09.88.16,1.79.21,2.73.02.11.02.23.02.34.16,6.52-1.38,15.12-3.13,24.82Z" fill="currentColor"></path><path d="M472.43,298.85c-.63.39-1.25.84-1.82,1.3-10.97,8.93-7.84,28.29-6.66,35.58.61,3.61,1.5,7.24,2.71,10.72v.02c-.88,4.88-5.91,29.13-26.17,68.11-9.63,19.15-6.93,39.11-4.34,58.41.73,5.34,1.41,10.4,1.84,15.46.64,7.43,1.79,17.76,3.14,28.71-.13.04-.25.07-.38.09-10.36,2.18-22.31-.88-29.24-7.52-5.41-5.2-17.43-20.98-12.4-55.36,2.39-16.22-.77-33.81-3.55-49.32-1.75-9.7-3.29-18.28-3.13-24.8v-.16c.07-1.11.16-2.18.27-3.2,1.07-6.77,12.31-16.44,26.51-28.68,10.65-9.17,22.65-19.51,32.92-30.89.11-.09.2-.18.29-.29,1.3-1.36,2.59-2.79,3.8-4.27,4.47-5.41,9.36-10.74,16.2-13.92Z" fill="currentColor"></path></g>
</svg>