<svg viewBox="0 0 660.46 1206.46" fill="none" xmlns="http://www.w3.org/2000/svg">
<g id="outer-quadricep" class="bodymap text-mw-gray active:text-mw-red-700 lg:hover:text-mw-red-100"><path id="outer-quadricep" d="M464.99,783.48c-.02.05-.02.11-.04.16v.04c-.84,3.84-1.63,7.81-2.38,11.61-3.16,16.13-6.14,31.38-14.22,35.38-2.93,1.47-6.41,1.39-10.56-.21t-.04-.02s-.04-.05-.07-.07c-10.7-4.36-15.88-13.63-16.81-30.09-.88-15.31,1.96-35.34,5.54-60.7,7.27-51.37,17.2-121.72,3.16-207.11v-.02c3.41-5.13,7.38-9.18,12-11.85,2.71,21.41,6.16,44.3,8.2,52.34.13.54.34,1.32.59,2.3,9.64,36.51,28.06,122.65,14.61,208.24Z" fill="currentColor"></path><path d="M255.6,800.28c-.93,16.46-6.11,25.73-16.81,30.09-.02.02-.04.02-.05.05-4.16,1.64-7.66,1.73-10.63.25-8.06-4-11.06-19.24-14.2-35.38-.77-3.84-1.54-7.84-2.41-11.72,0-.02,0-.05-.02-.07v-.02c-9.75-61.72-4.57-135.66,14.63-208.26.25-.98.45-1.75.59-2.29,2.13-8.43,5.75-32.99,8.2-52.35,4.63,2.68,8.59,6.74,12,11.86v.02c-14.04,85.41-4.11,155.76,3.16,207.11,3.57,25.36,6.41,45.39,5.54,60.7Z" fill="currentColor"></path></g>
</svg>