<svg viewBox="0 0 660.46 1206.46" fill="none" xmlns="http://www.w3.org/2000/svg">
<g id="posterior-deltoid" class="bodymap text-mw-gray active:text-mw-red-700 lg:hover:text-mw-red-100"><path d="M497,281.76c-7.37-.79-16.61-2.47-25.65-6.49-.04-.02-.07-.04-.13-.05-4.57-2.05-9.08-4.67-13.27-8.08-7.11-5.77-14.03-10.97-20.71-15.99-10.69-8.01-20.78-15.6-30.58-24.71,4.19-4.42,10.92-10.93,21.41-14.48,36.95,19.87,53.92,46.37,67.54,67.65l1.39,2.15Z" fill="currentColor"></path><path d="M267.87,226.44c-9.78,9.13-19.89,16.69-30.56,24.71-6.68,5.02-13.59,10.21-20.71,15.99-4.22,3.43-8.79,6.09-13.4,8.13-9.04,4.02-18.29,5.7-25.65,6.49l1.37-2.15c13.63-21.29,30.58-47.77,67.54-67.63h.02c10.47,3.55,17.22,10.04,21.39,14.46Z" fill="currentColor"></path></g>
</svg>