<svg viewBox="0 0 660.46 1206.46" fill="none" xmlns="http://www.w3.org/2000/svg">
<g id="rectus-femoris" class="bodymap text-mw-gray active:text-mw-red-700 lg:hover:text-mw-red-100"><path id="rectus-femoris" d="M291.32,839.78c-4.93,11.2-12.23,21.08-22.65,21.08h-.27c-13.63-.23-16.29-11.9-18.43-21.28-1.14-5.02-2.14-9.35-4.68-10.56-.68-.32-1.45-.41-2.3-.27,8.18-5.02,12.25-14.01,13.06-28.45.88-15.37-1.96-35.42-5.55-60.79-7.23-51.25-17.15-121.4-3.21-206.52,14.25,22,18.77,62.97,22.86,99.99,1.75,15.71,3.38,30.56,5.64,42.9v.02s-.05.09-.04.14c10.13,53.84,9.11,92.72,8.43,118.43-.63,23.57-1,37.85,7.14,45.3Z" fill="currentColor"></path><path d="M433.5,828.76c-.86-.14-1.63-.05-2.3.27-2.54,1.22-3.54,5.54-4.68,10.56-2.14,9.38-4.8,21.05-18.43,21.28h-.27c-10.41,0-17.72-9.88-22.65-21.08,8.14-7.45,7.77-21.73,7.14-45.3-.68-25.71-1.7-64.59,8.43-118.43.02-.05,0-.11-.04-.14v-.02c2.27-12.35,3.89-27.2,5.64-42.9,4.09-37.02,8.61-78.01,22.88-100.01,13.91,85.14,4,155.29-3.23,206.54-3.59,25.37-6.43,45.42-5.55,60.79.8,14.44,4.88,23.43,13.06,28.45Z" fill="currentColor"></path></g>
</svg>