<svg viewBox="0 0 660.46 1206.46" fill="none" xmlns="http://www.w3.org/2000/svg">
<g id="short-head-bicep" class="bodymap text-mw-gray active:text-mw-red-700 lg:hover:text-mw-red-100"><path d="M549,411.35c-.98,2.64-3.45,4.41-7.31,5.27-9.31.43-21.79-4.88-34.94-20.92,0,0-.02,0-.04-.02-.02-.02-.04-.04-.05-.05-9.93-13.22-19.5-25.55-21.68-27.59-.5-.46-1.07-.96-1.68-1.52-4.72-4.24-11.84-10.65-16.07-21.01-.04-.09-.14-.16-.23-.14s-.16.07-.18.16c-1.07-3.22-1.89-6.54-2.43-9.86-1.16-7.22-4.27-26.39,6.48-35.17.64-.54,1.32-1,2.02-1.41.82.41,17.18,8.86,28.76,30.66,0,0,0,.02.02.02,5.5,11.31,14.07,23.51,23.27,36.58,6.5,9.24,13.22,18.8,19.41,28.82,0,.02.2.27.5.71,1.55,2.38,6.18,10.06,4.14,15.47Z" fill="currentColor"></path><path d="M212.09,335.66c-.54,3.34-1.36,6.65-2.43,9.88-.02-.11-.09-.16-.18-.18-.11-.02-.2.05-.25.14-4.2,10.33-11.32,16.74-16.04,20.98-.61.57-1.2,1.09-1.7,1.55-2.77,2.57-16.15,20.19-21.77,27.66-13.15,16.05-25.63,21.37-34.94,20.92-3.86-.86-6.32-2.63-7.31-5.27-2.3-6.11,3.88-15.08,4.59-16.1.04-.05.07-.09.07-.09,0-.02.02-.02.02-.04,6.16-10.01,12.88-19.55,19.38-28.79,9.2-13.06,17.77-25.27,23.27-36.58.02,0,.02-.02.02-.02,11.57-21.75,27.86-30.22,28.77-30.66.7.43,1.36.89,2,1.41,10.75,8.77,7.64,27.95,6.48,35.17Z" fill="currentColor"></path></g>
</svg>