<svg viewBox="0 0 660.46 1206.46" fill="none" xmlns="http://www.w3.org/2000/svg">
<g id="soleus" class="bodymap text-mw-gray active:text-mw-red-700 lg:hover:text-mw-red-100"><path d="M486.85,965.01v.02c-1.55,28.28-4.96,54.55-19.32,55.39-.18,0-.34.02-.51.02-5.11,0-9.26-4.48-12.78-10.09.04-.11.02-.21-.04-.3-10.24-16.93-21.77-77.59-5.51-96.42.04-.05.07-.11.07-.16,1.91-1.66,3.85-3.48,5.76-5.28,6.03-5.7,11.73-11.07,15.92-9.95,1.81.47,3.27,2.13,4.42,5.05.31.89.6,1.8.92,2.73.02.05.04.09.05.14,5,15.06,10.54,33.11,10.99,58.85Z" fill="currentColor"></path><path d="M220.34,1010.05c-.05.09-.07.19-.04.28-3.65,5.81-7.96,10.41-13.29,10.09-14.35-.84-17.76-27.11-19.32-55.39v-.02c.45-25.75,5.99-43.8,10.99-58.85.02-.05.04-.09.05-.14.32-.93.61-1.84.92-2.73,1.16-2.92,2.62-4.58,4.42-5.05,4.17-1.12,9.89,4.25,15.92,9.95,1.91,1.8,3.83,3.6,5.74,5.26.02.07.04.12.07.18,16.28,18.84,4.73,79.49-5.49,96.42Z" fill="currentColor"></path></g>
</svg>