<svg viewBox="0 0 660.46 1206.46" fill="none" xmlns="http://www.w3.org/2000/svg">
<g id="tibialis" class="bodymap text-mw-gray active:text-mw-red-700 lg:hover:text-mw-red-100"><path d="M457.11,1097.68c-4.16,1.04-8.59,1.23-12.95.5-5.48-72.94-21.52-187.06-22.52-194.16,1.91.48,3.82.73,5.72.73h.34c8-.12,14.82-4.57,19.22-12.53.46-.82.89-1.61,1.32-2.34l.11,1.61c5.88,82.52,7.84,110.36,8.77,206.18Z" fill="currentColor"></path><path d="M254.85,904.02c-1,7.11-17.04,121.24-22.52,194.16-4.36.73-8.77.54-12.93-.5.91-95.83,2.88-123.65,8.75-206.17l.11-1.63c.43.73.86,1.52,1.32,2.34,4.39,7.95,11.22,12.4,19.22,12.53h.34c1.89,0,3.8-.25,5.72-.73Z" fill="currentColor"></path></g>
</svg>