<svg viewBox="0 0 660.46 1206.46" fill="none" xmlns="http://www.w3.org/2000/svg">
<g id="traps-middle" class="bodymap text-mw-gray active:text-mw-red-700 lg:hover:text-mw-red-100"><path d="M402.56,230.62c-15.58,28.26-26.52,51.96-34.52,71.11-9.51-1.1-20.44-1.68-31.57-1.68-10.49,0-20.87.51-30.04,1.5-7.98-19.12-18.92-42.76-34.45-70.92,3.77,3.25,7.4,4.37,11.82,4.37,3.56,0,7.65-.72,12.76-1.63,9.15-1.59,21.68-3.8,40.69-3.8s31.56,2.2,40.69,3.8c5.13.91,9.21,1.63,12.78,1.63,4.44,0,8.05-1.12,11.82-4.39Z" fill="currentColor"></path></g>
</svg>