<svg viewBox="0 0 660.46 1206.46" fill="none" xmlns="http://www.w3.org/2000/svg">
<g id="upper-pectoralis" class="bodymap text-mw-gray active:text-mw-red-700 lg:hover:text-mw-red-100"><path d="M491.08,295.44c-46.21-9.08-69.82-28.45-92.64-47.19-13.9-11.4-27.06-22.17-44.83-30.66,3.59-1.48,8.09-2.64,13.7-3.16,16.07-1.54,25.17,1.16,30.04,2.61.25.07.5.14.73.21.02,0,.05.02.07.02.05.02.09.04.14.05.23.07.48.16.73.23,2.77.93,11.63,4.07,18.88,8.68,10.95,6.97,15.4,12.85,22.13,21.78,3.05,4.04,6.52,8.63,11.25,14.21l.05.05c5.02,5.9,15.49,18.17,28.83,27.21,2.59,1.77,6.23,3.41,10.88,4.9.02.36.04.71.04,1.05Z" fill="currentColor"></path><path d="M322.87,217.59c-17.77,8.51-30.92,19.28-44.81,30.66-22.81,18.74-46.44,38.11-92.63,47.19,0-.34.02-.7.04-1.05,4.63-1.48,8.27-3.13,10.86-4.9,13.34-9.04,23.81-21.32,28.83-27.21l.05-.05c4.73-5.58,8.2-10.17,11.25-14.21,6.72-8.93,11.16-14.81,22.13-21.78,7.25-4.61,16.11-7.75,18.88-8.68.25-.07.5-.16.73-.23.05-.02.09-.04.14-.05.02,0,.05-.02.07-.02.23-.07.48-.14.73-.21,4.88-1.45,13.97-4.15,30.04-2.61,5.61.52,10.11,1.68,13.68,3.16Z" fill="currentColor"></path></g>
</svg>