<svg viewBox="0 0 660.46 1206.46" fill="none" xmlns="http://www.w3.org/2000/svg">
<g id="upper-abdominals" class="bodymap active:text-mw-red-700 text-mw-gray lg:hover:text-mw-red-100"><path d="M396.58,348.38c-2.57-5.79-10.04-9.99-17.49-13.12-.07-.02-.14-.05-.2-.07-1.59-.55-3.16-1.16-4.73-1.84-.05-.04-.13-.05-.18-.07l-.02-.02c-5.43-2-23.67-8.09-31.63-2.54-2.45,1.7-3.68,4.4-3.68,8.01,0,.13-.11.21-.23.21-.09,0-.14-.04-.18-.11-.04.07-.09.11-.18.11-.13,0-.23-.09-.23-.21,0-3.61-1.23-6.31-3.68-8.01-7.97-5.56-26.2.54-31.63,2.54l-.02.02c-.07.04-.16.05-.23.09-1.61.71-3.25,1.32-4.88,1.89-.02.02-.04.02-.05.02-7.43,3.14-14.88,7.33-17.43,13.1-1.73,3.91-.75,7.13.77,11.99,1.21,3.93,2.82,9.08,3.55,16.62,0,.04.02.09.02.13.11.88.2,1.79.21,2.75.02.13.02.23.02.34.04.5.07,1.02.09,1.54.11,2.54.05,3.75-.04,5.41-.09,1.84-.21,4.38-.16,10.06.04,4.06.34,12.87.82,24.02,5.72.46,10.9.59,10.95.59l1.48.02c15.22.25,29.61.48,37.08-3.73,2.32-1.32,3.11-3.91,3.3-7.33-.09-1.61-.05-3.38,0-5.29,0-.46-.02-.93-.04-1.41-.07-1.75-.14-3.56-.14-5.45,0-.12.11-.23.23-.23.07,0,.14.04.18.11.04-.07.11-.11.18-.11.13,0,.23.11.23.23,0,1.89-.07,3.7-.14,5.45-.02.48-.04.95-.04,1.41.05,1.91.09,3.68,0,5.29.2,3.41.98,6,3.3,7.33,7.47,4.22,21.86,3.98,37.08,3.73l1.48-.02c.05,0,5.23-.13,10.95-.59.48-11.15.79-19.96.82-24.02.05-5.7-.07-8.22-.16-10.06-.09-1.66-.14-2.88-.04-5.41.02-.52.05-1.04.09-1.54,0-.11,0-.21.02-.34.02-.96.11-1.88.21-2.75,0-.04.02-.09.02-.13.73-7.54,2.34-12.69,3.55-16.62,1.5-4.86,2.5-8.08.77-11.99ZM370.66,377.9c-.39-.09-.8-.2-1.25-.32-5.39-1.43-14.45-3.82-21.93-2.54-8.16,1.38-8.82,6.65-8.82,12.38,0,.13-.11.23-.23.23-.07,0-.14-.04-.18-.11-.04.07-.11.11-.18.11-.13,0-.23-.11-.23-.23,0-5.74-.66-11.01-8.82-12.38-7.48-1.29-16.54,1.11-21.93,2.54-.45.12-.86.23-1.25.32-.13.04-.23-.04-.27-.16-.04-.11.04-.23.16-.27.38-.09.8-.21,1.23-.32,5.45-1.45,14.56-3.84,22.13-2.56,7.72,1.3,9,6.11,9.16,11.24.16-5.13,1.45-9.93,9.16-11.24,7.57-1.29,16.68,1.11,22.13,2.56.43.11.86.23,1.23.32.13.04.2.16.16.27-.04.13-.16.2-.27.16ZM383.15,375.87h-.07c-14.38-4.2-24.15-6.7-38.45-6.43-5.22-.02-6.18-6.15-6.38-13.72-.2,7.58-1.16,13.7-6.38,13.72-14.29-.3-24.08,2.23-38.45,6.43h-.07c-.09,0-.18-.05-.21-.16s.04-.23.16-.27c14.41-4.2,24.22-6.72,38.58-6.45,5.97-.02,5.97-9.1,5.97-18.69,0-.13.11-.23.23-.23.07,0,.14.04.18.11.04-.07.11-.11.18-.11.13,0,.23.11.23.23,0,9.6,0,18.67,5.97,18.69,14.36-.29,24.15,2.25,38.58,6.45.13.04.2.16.16.27-.04.11-.13.16-.21.16Z" fill="currentColor"></path></g>
</svg>