<svg viewBox="0 0 660.46 1206.46" fill="none" xmlns="http://www.w3.org/2000/svg">
<g id="upper-trapezius" class="bodymap text-mw-gray active:text-mw-red-700 lg:hover:text-mw-red-100"><path d="M440.46,208.63c-18.49,1.28-29.07,11.49-34.73,17.53-.38.38-.72.77-1.05,1.12l-.6.63c-7.35,7.89-13.18,6.86-25.96,4.62-9.17-1.61-21.75-3.81-40.85-3.81s-31.67,2.2-40.84,3.81c-12.73,2.24-18.56,3.27-25.91-4.53-.02-.04-.04-.05-.07-.09l-.58-.63c-.33-.35-.67-.73-1.05-1.12-5.67-6.03-16.21-16.28-34.73-17.53.72-.37,1.99-1.14,3.61-2.12,3.3-1.98,7.83-4.7,11.08-6.14,2.04-.91,6.55-2.75,11.77-4.86,5.2-2.12,10.87-4.43,14.95-6.16.05,0,.09,0,.14-.02,20.22-5.35,41.7-4.3,53.24-3.74,1.21.05,2.33.11,3.3.16,3.38.12,6.79.12,10.16,0,.97-.05,2.09-.11,3.3-.16,11.54-.56,33-1.61,53.22,3.74.05,0,.09.02.13.02h.02c4.1,1.73,9.75,4.04,14.95,6.16,5.24,2.12,9.73,3.95,11.79,4.86,3.23,1.43,7.78,4.16,11.08,6.14,1.64.98,2.91,1.75,3.61,2.12Z" fill="currentColor" stroke-width="0"></path></g>
</svg>