<svg viewBox="0 0 660.46 1206.46" fill="none" xmlns="http://www.w3.org/2000/svg">
<g id="wrist-extensors" class="bodymap text-mw-gray active:text-mw-red-700 lg:hover:text-mw-red-100"><path d="M657.27,533.95c-1.61,5.89-4.64,10.76-8.32,13.52-19.95-48.31-49.39-91.61-75.41-129.85-7.91-11.61-15.38-22.61-22.19-33.14,2.74-1.19,6.79-.02,10.71,1.1,4.4,1.26,8.58,2.45,10.74.24,1.43-1.43,1.77-4.2,1.03-8.52.07.09.14.19.23.28,0,.02.02.02.02.04,1.17,1.87,2.71,3.74,4.77,5.6,7.82,7.05,34.52,32.97,49.36,70.47,9.75,24.63,17.87,49.18,22.71,63.84,2.4,7.22,3.97,12,4.71,13.69.49,1.12,1.07,1.96,1.64,2.73Z" fill="currentColor"></path><path d="M123.17,384.46c-6.77,10.53-14.26,21.53-22.19,33.16-26,38.23-55.44,81.54-75.39,129.85-3.68-2.76-6.72-7.64-8.32-13.54.58-.77,1.16-1.61,1.64-2.71.74-1.7,2.31-6.47,4.71-13.69,4.84-14.66,12.96-39.21,22.71-63.84,14.84-37.5,41.52-63.42,49.36-70.47,2-1.8,3.5-3.64,4.64-5.46.02-.02.04-.02.04-.04.02-.02.04-.04.05-.05l.27-.33c-.74,4.28-.4,7.05,1.03,8.48,2.18,2.2,6.35,1.01,10.76-.24,3.9-1.12,7.93-2.27,10.69-1.12Z" fill="currentColor"></path></g>
</svg>