<svg viewBox="0 0 660.46 1206.46" fill="none" xmlns="http://www.w3.org/2000/svg">
<g id="wrist-flexors" class="bodymap text-mw-gray active:text-mw-red-700 lg:hover:text-mw-red-100"><path d="M648.19,548.01c-.81.56-1.68,1-2.55,1.33-5,1.85-12.01.58-18.76-3.46-4.13-8.82-14.17-23.35-37.53-46.61-14.3-14.1-23.96-30.4-33.27-46.16-5.85-9.88-11.37-19.2-17.91-27.91l-.43-.58c-9.55-12.72-14.59-19.43-18.78-24.45,9.69,7.98,16.54,11.81,21.09,11.81.88,0,1.68-.14,2.38-.42,4.42-1.75,4.82-8.43,5.2-14.9.31-5.19.6-10.14,2.92-11.75,6.81,10.55,14.3,21.57,22.24,33.21,26.01,38.25,55.5,81.57,75.39,129.9Z" fill="currentColor"></path><path d="M155.58,400.17c-4.19,5.02-9.23,11.74-18.78,24.45l-.43.58c-6.54,8.71-12.06,18.03-17.91,27.91-9.33,15.76-18.97,32.06-33.27,46.16-23.36,23.26-33.4,37.8-37.53,46.61-6.75,4.04-13.77,5.33-18.76,3.46-.87-.33-1.73-.77-2.55-1.33,19.89-48.33,49.38-91.65,75.39-129.9,7.94-11.65,15.44-22.67,22.24-33.21,2.33,1.61,2.6,6.56,2.92,11.75.38,6.47.78,13.15,5.18,14.9.72.28,1.52.42,2.38.42,4.57,0,11.41-3.83,21.1-11.81Z" fill="currentColor"></path></g>
</svg>